<svg width="32" height="32" viewBox="0 0 32 32" fill="none" xmlns="http://www.w3.org/2000/svg">
<path d="M24.12 25.0001C26.94 22.3701 28.19 18.0001 27.44 13.8101H16.25V18.4401H22.62C22.4963 19.1663 22.2214 19.8585 21.8131 20.4718C21.4049 21.0851 20.8723 21.6057 20.25 22.0001L24.12 25.0001Z" fill="#4285F4"/>
<path d="M5.62012 21.31C6.44207 22.9298 7.62102 24.3419 9.0681 25.4398C10.5152 26.5377 12.1926 27.2927 13.9739 27.648C15.7553 28.0033 17.594 27.9496 19.3516 27.4909C21.1091 27.0322 22.7396 26.1805 24.1201 25L20.2501 22C19.3323 22.5951 18.2904 22.9719 17.2044 23.1017C16.1183 23.2315 15.0169 23.1107 13.9848 22.7486C12.9526 22.3866 12.0171 21.7928 11.2501 21.013C10.4832 20.2332 9.90502 19.288 9.56012 18.25L5.62012 21.31Z" fill="#34A853"/>
<path d="M9.55991 18.25C9.05991 16.69 9.05991 15.25 9.55991 13.69L5.61991 10.62C4.7981 12.2837 4.37061 14.1144 4.37061 15.97C4.37061 17.8256 4.7981 19.6563 5.61991 21.32L9.55991 18.25Z" fill="#FBBC02"/>
<path d="M9.56012 13.69C10.9401 9.37004 16.8101 6.87004 20.7501 10.56L24.1901 7.19004C22.843 5.94776 21.2251 5.03629 19.4646 4.52786C17.704 4.01943 15.8493 3.92802 14.0473 4.26085C12.2453 4.59369 10.5456 5.34164 9.08287 6.44543C7.62013 7.54922 6.43456 8.97851 5.62012 10.62L9.56012 13.69Z" fill="#EA4335"/>
</svg>
